<svg id="visual" viewBox="0 0 900 450" width="900" height="450" xmlns="http://www.w3.org/2000/svg" xmlns:xlink="http://www.w3.org/1999/xlink" version="1.1"><rect x="0" y="0" width="900" height="450" fill="#2c2c6c"></rect><defs><linearGradient id="grad1_0" x1="50%" y1="100%" x2="100%" y2="0%"><stop offset="10%" stop-color="#020236" stop-opacity="1"></stop><stop offset="90%" stop-color="#020236" stop-opacity="1"></stop></linearGradient></defs><defs><linearGradient id="grad1_1" x1="50%" y1="100%" x2="100%" y2="0%"><stop offset="10%" stop-color="#020236" stop-opacity="1"></stop><stop offset="90%" stop-color="#040d3e" stop-opacity="1"></stop></linearGradient></defs><defs><linearGradient id="grad1_2" x1="50%" y1="100%" x2="100%" y2="0%"><stop offset="10%" stop-color="#0c1447" stop-opacity="1"></stop><stop offset="90%" stop-color="#040d3e" stop-opacity="1"></stop></linearGradient></defs><defs><linearGradient id="grad1_3" x1="50%" y1="100%" x2="100%" y2="0%"><stop offset="10%" stop-color="#0c1447" stop-opacity="1"></stop><stop offset="90%" stop-color="#141950" stop-opacity="1"></stop></linearGradient></defs><defs><linearGradient id="grad1_4" x1="50%" y1="100%" x2="100%" y2="0%"><stop offset="10%" stop-color="#1c1f59" stop-opacity="1"></stop><stop offset="90%" stop-color="#141950" stop-opacity="1"></stop></linearGradient></defs><defs><linearGradient id="grad1_5" x1="50%" y1="100%" x2="100%" y2="0%"><stop offset="10%" stop-color="#1c1f59" stop-opacity="1"></stop><stop offset="90%" stop-color="#242663" stop-opacity="1"></stop></linearGradient></defs><defs><linearGradient id="grad1_6" x1="50%" y1="100%" x2="100%" y2="0%"><stop offset="10%" stop-color="#2c2c6c" stop-opacity="1"></stop><stop offset="90%" stop-color="#242663" stop-opacity="1"></stop></linearGradient></defs><defs><linearGradient id="grad2_0" x1="0%" y1="100%" x2="50%" y2="0%"><stop offset="10%" stop-color="#020236" stop-opacity="1"></stop><stop offset="90%" stop-color="#020236" stop-opacity="1"></stop></linearGradient></defs><defs><linearGradient id="grad2_1" x1="0%" y1="100%" x2="50%" y2="0%"><stop offset="10%" stop-color="#040d3e" stop-opacity="1"></stop><stop offset="90%" stop-color="#020236" stop-opacity="1"></stop></linearGradient></defs><defs><linearGradient id="grad2_2" x1="0%" y1="100%" x2="50%" y2="0%"><stop offset="10%" stop-color="#040d3e" stop-opacity="1"></stop><stop offset="90%" stop-color="#0c1447" stop-opacity="1"></stop></linearGradient></defs><defs><linearGradient id="grad2_3" x1="0%" y1="100%" x2="50%" y2="0%"><stop offset="10%" stop-color="#141950" stop-opacity="1"></stop><stop offset="90%" stop-color="#0c1447" stop-opacity="1"></stop></linearGradient></defs><defs><linearGradient id="grad2_4" x1="0%" y1="100%" x2="50%" y2="0%"><stop offset="10%" stop-color="#141950" stop-opacity="1"></stop><stop offset="90%" stop-color="#1c1f59" stop-opacity="1"></stop></linearGradient></defs><defs><linearGradient id="grad2_5" x1="0%" y1="100%" x2="50%" y2="0%"><stop offset="10%" stop-color="#242663" stop-opacity="1"></stop><stop offset="90%" stop-color="#1c1f59" stop-opacity="1"></stop></linearGradient></defs><defs><linearGradient id="grad2_6" x1="0%" y1="100%" x2="50%" y2="0%"><stop offset="10%" stop-color="#242663" stop-opacity="1"></stop><stop offset="90%" stop-color="#2c2c6c" stop-opacity="1"></stop></linearGradient></defs><g transform="translate(900, 450)"><path d="M-405 0C-393.9 -15 -382.9 -29.9 -382.2 -46.4C-381.5 -62.9 -391.1 -80.9 -386.4 -95.2C-381.7 -109.6 -362.7 -120.3 -353.4 -134C-344.1 -147.8 -344.6 -164.5 -337.4 -177.1C-330.1 -189.6 -315.3 -198.1 -310.3 -214.2C-305.2 -230.3 -310 -254 -302.4 -267.9C-294.8 -281.8 -274.7 -285.8 -258 -291.2C-241.2 -296.5 -227.7 -303.2 -214.2 -310.3C-200.7 -317.3 -187.2 -324.7 -172.9 -329.4C-158.6 -334.1 -143.5 -336.1 -130.1 -343.2C-116.8 -350.2 -105.2 -362.1 -92.1 -373.8C-79 -385.5 -64.4 -396.9 -48.8 -402C-33.2 -407.2 -16.6 -406.1 0 -405L0 0Z" fill="#282967"></path><path d="M-347.1 0C-337.7 -12.8 -328.2 -25.6 -327.6 -39.8C-327 -53.9 -335.2 -69.3 -331.2 -81.6C-327.2 -93.9 -310.9 -103.1 -302.9 -114.9C-295 -126.7 -295.3 -141 -289.2 -151.8C-283 -162.5 -270.3 -169.8 -265.9 -183.6C-261.6 -197.4 -265.7 -217.7 -259.2 -229.6C-252.7 -241.5 -235.5 -245 -221.1 -249.6C-206.7 -254.2 -195.1 -259.9 -183.6 -265.9C-172 -272 -160.4 -278.3 -148.2 -282.3C-135.9 -286.4 -123 -288.1 -111.5 -294.1C-100.1 -300.1 -90.2 -310.4 -79 -320.4C-67.8 -330.4 -55.2 -340.2 -41.8 -344.6C-28.5 -349 -14.2 -348.1 0 -347.1L0 0Z" fill="#20235e"></path><path d="M-289.3 0C-281.4 -10.7 -273.5 -21.4 -273 -33.1C-272.5 -44.9 -279.4 -57.8 -276 -68C-272.7 -78.3 -259.1 -85.9 -252.5 -95.7C-245.8 -105.5 -246.1 -117.5 -241 -126.5C-235.8 -135.5 -225.2 -141.5 -221.6 -153C-218 -164.5 -221.4 -181.4 -216 -191.4C-210.6 -201.3 -196.2 -204.2 -184.3 -208C-172.3 -211.8 -162.6 -216.6 -153 -221.6C-143.3 -226.6 -133.7 -231.9 -123.5 -235.3C-113.3 -238.6 -102.5 -240.1 -93 -245.1C-83.4 -250.1 -75.2 -258.7 -65.8 -267C-56.5 -275.4 -46 -283.5 -34.9 -287.2C-23.7 -290.9 -11.9 -290.1 0 -289.3L0 0Z" fill="#181c55"></path><path d="M-231.4 0C-225.1 -8.5 -218.8 -17.1 -218.4 -26.5C-218 -35.9 -223.5 -46.2 -220.8 -54.4C-218.1 -62.6 -207.3 -68.8 -202 -76.6C-196.7 -84.4 -196.9 -94 -192.8 -101.2C-188.7 -108.4 -180.2 -113.2 -177.3 -122.4C-174.4 -131.6 -177.2 -145.1 -172.8 -153.1C-168.4 -161 -157 -163.3 -147.4 -166.4C-137.8 -169.4 -130.1 -173.3 -122.4 -177.3C-114.7 -181.3 -107 -185.5 -98.8 -188.2C-90.6 -190.9 -82 -192.1 -74.4 -196.1C-66.7 -200.1 -60.1 -206.9 -52.6 -213.6C-45.2 -220.3 -36.8 -226.8 -27.9 -229.7C-19 -232.7 -9.5 -232.1 0 -231.4L0 0Z" fill="#10174c"></path><path d="M-173.6 0C-168.8 -6.4 -164.1 -12.8 -163.8 -19.9C-163.5 -27 -167.6 -34.7 -165.6 -40.8C-163.6 -47 -155.5 -51.6 -151.5 -57.4C-147.5 -63.3 -147.7 -70.5 -144.6 -75.9C-141.5 -81.3 -135.1 -84.9 -133 -91.8C-130.8 -98.7 -132.9 -108.9 -129.6 -114.8C-126.3 -120.8 -117.7 -122.5 -110.6 -124.8C-103.4 -127.1 -97.6 -130 -91.8 -133C-86 -136 -80.2 -139.1 -74.1 -141.2C-68 -143.2 -61.5 -144.1 -55.8 -147.1C-50.1 -150.1 -45.1 -155.2 -39.5 -160.2C-33.9 -165.2 -27.6 -170.1 -20.9 -172.3C-14.2 -174.5 -7.1 -174 0 -173.6L0 0Z" fill="#071143"></path><path d="M-115.7 0C-112.6 -4.3 -109.4 -8.5 -109.2 -13.3C-109 -18 -111.7 -23.1 -110.4 -27.2C-109.1 -31.3 -103.6 -34.4 -101 -38.3C-98.3 -42.2 -98.4 -47 -96.4 -50.6C-94.3 -54.2 -90.1 -56.6 -88.6 -61.2C-87.2 -65.8 -88.6 -72.6 -86.4 -76.5C-84.2 -80.5 -78.5 -81.7 -73.7 -83.2C-68.9 -84.7 -65 -86.6 -61.2 -88.6C-57.3 -90.7 -53.5 -92.8 -49.4 -94.1C-45.3 -95.5 -41 -96 -37.2 -98C-33.4 -100 -30.1 -103.5 -26.3 -106.8C-22.6 -110.1 -18.4 -113.4 -13.9 -114.9C-9.5 -116.3 -4.7 -116 0 -115.7L0 0Z" fill="#02083a"></path><path d="M-57.9 0C-56.3 -2.1 -54.7 -4.3 -54.6 -6.6C-54.5 -9 -55.9 -11.6 -55.2 -13.6C-54.5 -15.7 -51.8 -17.2 -50.5 -19.1C-49.2 -21.1 -49.2 -23.5 -48.2 -25.3C-47.2 -27.1 -45 -28.3 -44.3 -30.6C-43.6 -32.9 -44.3 -36.3 -43.2 -38.3C-42.1 -40.3 -39.2 -40.8 -36.9 -41.6C-34.5 -42.4 -32.5 -43.3 -30.6 -44.3C-28.7 -45.3 -26.7 -46.4 -24.7 -47.1C-22.7 -47.7 -20.5 -48 -18.6 -49C-16.7 -50 -15 -51.7 -13.2 -53.4C-11.3 -55.1 -9.2 -56.7 -7 -57.4C-4.7 -58.2 -2.4 -58 0 -57.9L0 0Z" fill="#020236"></path></g><g transform="translate(0, 0)"><path d="M405 0C395.1 15.5 385.1 31 380.2 46.2C375.3 61.4 375.5 76.3 376.7 92.9C378 109.4 380.4 127.6 372.1 141.1C363.9 154.7 345 163.5 332 174.3C319.1 185 311.9 197.7 302.9 209C293.8 220.4 282.7 230.6 273.2 242C263.7 253.5 255.8 266.3 247.3 279.2C238.9 292.1 230.1 305.2 221 320.1C211.9 335.1 202.6 351.9 188.2 358.6C173.8 365.3 154.4 362 136.9 360.9C119.4 359.8 103.9 360.9 88.8 360.2C73.7 359.6 59 357.2 44.2 364.3C29.5 371.5 14.8 388.2 0 405L0 0Z" fill="#282967"></path><path d="M347.1 0C338.6 13.3 330.1 26.5 325.9 39.6C321.7 52.6 321.8 65.4 322.9 79.6C324 93.8 326 109.4 319 121C311.9 132.6 295.7 140.2 284.6 149.4C273.5 158.6 267.4 169.4 259.6 179.2C251.8 188.9 242.3 197.6 234.2 207.5C226 217.3 219.2 228.2 212 239.3C204.8 250.4 197.2 261.6 189.4 274.4C181.6 287.2 173.7 301.6 161.3 307.4C149 313.2 132.3 310.3 117.3 309.4C102.3 308.4 89.1 309.3 76.1 308.8C63.2 308.2 50.5 306.1 37.9 312.3C25.3 318.4 12.6 332.8 0 347.1L0 0Z" fill="#20235e"></path><path d="M289.3 0C282.2 11.1 275.1 22.1 271.6 33C268.1 43.8 268.2 54.5 269.1 66.3C270 78.2 271.7 91.1 265.8 100.8C259.9 110.5 246.5 116.8 237.2 124.5C227.9 132.2 222.8 141.2 216.3 149.3C209.8 157.5 201.9 164.7 195.1 172.9C188.4 181.1 182.7 190.2 176.7 199.4C170.7 208.7 164.3 218 157.8 228.7C151.4 239.3 144.7 251.3 134.4 256.1C124.2 261 110.3 258.6 97.8 257.8C85.3 257 74.2 257.8 63.4 257.3C52.6 256.8 42.1 255.1 31.6 260.2C21.1 265.4 10.5 277.3 0 289.3L0 0Z" fill="#181c55"></path><path d="M231.4 0C225.7 8.8 220.1 17.7 217.3 26.4C214.5 35.1 214.5 43.6 215.3 53.1C216 62.5 217.4 72.9 212.6 80.6C207.9 88.4 197.2 93.4 189.7 99.6C182.3 105.7 178.3 112.9 173.1 119.5C167.9 126 161.5 131.8 156.1 138.3C150.7 144.9 146.1 152.2 141.3 159.5C136.5 166.9 131.5 174.4 126.3 182.9C121.1 191.5 115.8 201.1 107.6 204.9C99.3 208.8 88.2 206.9 78.2 206.2C68.2 205.6 59.4 206.2 50.7 205.8C42.1 205.5 33.7 204.1 25.3 208.2C16.9 212.3 8.4 221.9 0 231.4L0 0Z" fill="#10174c"></path><path d="M173.6 0C169.3 6.6 165 13.3 162.9 19.8C160.8 26.3 160.9 32.7 161.5 39.8C162 46.9 163 54.7 159.5 60.5C156 66.3 147.9 70.1 142.3 74.7C136.7 79.3 133.7 84.7 129.8 89.6C125.9 94.5 121.2 98.8 117.1 103.7C113 108.6 109.6 114.1 106 119.7C102.4 125.2 98.6 130.8 94.7 137.2C90.8 143.6 86.8 150.8 80.7 153.7C74.5 156.6 66.2 155.2 58.7 154.7C51.2 154.2 44.5 154.7 38.1 154.4C31.6 154.1 25.3 153.1 19 156.1C12.6 159.2 6.3 166.4 0 173.6L0 0Z" fill="#071143"></path><path d="M115.7 0C112.9 4.4 110 8.8 108.6 13.2C107.2 17.5 107.3 21.8 107.6 26.5C108 31.3 108.7 36.5 106.3 40.3C104 44.2 98.6 46.7 94.9 49.8C91.2 52.9 89.1 56.5 86.5 59.7C83.9 63 80.8 65.9 78.1 69.2C75.3 72.4 73.1 76.1 70.7 79.8C68.3 83.5 65.7 87.2 63.1 91.5C60.5 95.7 57.9 100.5 53.8 102.5C49.7 104.4 44.1 103.4 39.1 103.1C34.1 102.8 29.7 103.1 25.4 102.9C21.1 102.7 16.8 102 12.6 104.1C8.4 106.1 4.2 110.9 0 115.7L0 0Z" fill="#02083a"></path><path d="M57.9 0C56.4 2.2 55 4.4 54.3 6.6C53.6 8.8 53.6 10.9 53.8 13.3C54 15.6 54.3 18.2 53.2 20.2C52 22.1 49.3 23.4 47.4 24.9C45.6 26.4 44.6 28.2 43.3 29.9C42 31.5 40.4 32.9 39 34.6C37.7 36.2 36.5 38 35.3 39.9C34.1 41.7 32.9 43.6 31.6 45.7C30.3 47.9 28.9 50.3 26.9 51.2C24.8 52.2 22.1 51.7 19.6 51.6C17.1 51.4 14.8 51.6 12.7 51.5C10.5 51.4 8.4 51 6.3 52C4.2 53.1 2.1 55.5 0 57.9L0 0Z" fill="#020236"></path></g></svg>