<svg id="visual" viewBox="0 0 900 600" width="900" height="600" xmlns="http://www.w3.org/2000/svg" xmlns:xlink="http://www.w3.org/1999/xlink" version="1.1"><rect x="0" y="0" width="900" height="600" fill="#dedef8"></rect><defs><linearGradient id="grad1_0" x1="33.3%" y1="100%" x2="100%" y2="0%"><stop offset="20%" stop-color="#afaff2" stop-opacity="1"></stop><stop offset="80%" stop-color="#afaff2" stop-opacity="1"></stop></linearGradient></defs><defs><linearGradient id="grad1_1" x1="33.3%" y1="100%" x2="100%" y2="0%"><stop offset="20%" stop-color="#afaff2" stop-opacity="1"></stop><stop offset="80%" stop-color="#b8b8f3" stop-opacity="1"></stop></linearGradient></defs><defs><linearGradient id="grad1_2" x1="33.3%" y1="100%" x2="100%" y2="0%"><stop offset="20%" stop-color="#c2c2f5" stop-opacity="1"></stop><stop offset="80%" stop-color="#b8b8f3" stop-opacity="1"></stop></linearGradient></defs><defs><linearGradient id="grad1_3" x1="33.3%" y1="100%" x2="100%" y2="0%"><stop offset="20%" stop-color="#c2c2f5" stop-opacity="1"></stop><stop offset="80%" stop-color="#cbcbf6" stop-opacity="1"></stop></linearGradient></defs><defs><linearGradient id="grad1_4" x1="33.3%" y1="100%" x2="100%" y2="0%"><stop offset="20%" stop-color="#d5d5f7" stop-opacity="1"></stop><stop offset="80%" stop-color="#cbcbf6" stop-opacity="1"></stop></linearGradient></defs><defs><linearGradient id="grad1_5" x1="33.3%" y1="100%" x2="100%" y2="0%"><stop offset="20%" stop-color="#d5d5f7" stop-opacity="1"></stop><stop offset="80%" stop-color="#dedef8" stop-opacity="1"></stop></linearGradient></defs><defs><linearGradient id="grad2_0" x1="0%" y1="100%" x2="66.7%" y2="0%"><stop offset="20%" stop-color="#afaff2" stop-opacity="1"></stop><stop offset="80%" stop-color="#afaff2" stop-opacity="1"></stop></linearGradient></defs><defs><linearGradient id="grad2_1" x1="0%" y1="100%" x2="66.7%" y2="0%"><stop offset="20%" stop-color="#b8b8f3" stop-opacity="1"></stop><stop offset="80%" stop-color="#afaff2" stop-opacity="1"></stop></linearGradient></defs><defs><linearGradient id="grad2_2" x1="0%" y1="100%" x2="66.7%" y2="0%"><stop offset="20%" stop-color="#b8b8f3" stop-opacity="1"></stop><stop offset="80%" stop-color="#c2c2f5" stop-opacity="1"></stop></linearGradient></defs><defs><linearGradient id="grad2_3" x1="0%" y1="100%" x2="66.7%" y2="0%"><stop offset="20%" stop-color="#cbcbf6" stop-opacity="1"></stop><stop offset="80%" stop-color="#c2c2f5" stop-opacity="1"></stop></linearGradient></defs><defs><linearGradient id="grad2_4" x1="0%" y1="100%" x2="66.7%" y2="0%"><stop offset="20%" stop-color="#cbcbf6" stop-opacity="1"></stop><stop offset="80%" stop-color="#d5d5f7" stop-opacity="1"></stop></linearGradient></defs><defs><linearGradient id="grad2_5" x1="0%" y1="100%" x2="66.7%" y2="0%"><stop offset="20%" stop-color="#dedef8" stop-opacity="1"></stop><stop offset="80%" stop-color="#d5d5f7" stop-opacity="1"></stop></linearGradient></defs><g transform="translate(900, 600)"><path d="M-540.8 0C-545.9 -22.9 -550.9 -45.8 -536.9 -65.2C-522.8 -84.6 -489.7 -100.6 -465.1 -114.6C-440.4 -128.7 -424.3 -140.8 -420.8 -159.6C-417.2 -178.3 -426.3 -203.7 -418.8 -219.8C-411.4 -236 -387.4 -242.9 -379.4 -261.9C-371.3 -280.9 -379.2 -311.9 -370.5 -328.2C-361.8 -344.6 -336.6 -346.3 -325.6 -367.5C-314.6 -388.7 -317.7 -429.5 -297.1 -430.4C-276.5 -431.4 -232.1 -392.5 -214.2 -408.2C-196.4 -423.9 -205.1 -494 -189 -498.4C-172.9 -502.7 -132 -441.2 -108.6 -440.8C-85.3 -440.4 -79.3 -501.3 -64.1 -528.1C-48.9 -555 -24.5 -547.9 0 -540.8L0 0Z" fill="#d9d9f8"></path><path d="M-450.7 0C-454.9 -19.1 -459.1 -38.1 -447.4 -54.3C-435.7 -70.5 -408.1 -83.8 -387.6 -95.5C-367 -107.2 -353.6 -117.4 -350.6 -133C-347.7 -148.6 -355.2 -169.7 -349 -183.2C-342.8 -196.6 -322.9 -202.4 -316.2 -218.2C-309.5 -234 -316 -259.9 -308.8 -273.5C-301.5 -287.2 -280.5 -288.6 -271.3 -306.3C-262.1 -323.9 -264.8 -357.9 -247.6 -358.7C-230.4 -359.5 -193.4 -327.1 -178.5 -340.2C-163.7 -353.2 -170.9 -411.7 -157.5 -415.3C-144.1 -418.9 -110 -367.6 -90.5 -367.3C-71 -367 -66.1 -417.7 -53.4 -440.1C-40.8 -462.5 -20.4 -456.6 0 -450.7L0 0Z" fill="#d0d0f6"></path><path d="M-360.6 0C-363.9 -15.3 -367.3 -30.5 -357.9 -43.5C-348.6 -56.4 -326.5 -67.1 -310.1 -76.4C-293.6 -85.8 -282.9 -93.9 -280.5 -106.4C-278.1 -118.9 -284.2 -135.8 -279.2 -146.5C-274.3 -157.3 -258.3 -161.9 -252.9 -174.6C-247.6 -187.2 -252.8 -207.9 -247 -218.8C-241.2 -229.7 -224.4 -230.9 -217.1 -245C-209.7 -259.2 -211.8 -286.3 -198.1 -286.9C-184.3 -287.6 -154.7 -261.7 -142.8 -272.1C-130.9 -282.6 -136.7 -329.4 -126 -332.2C-115.3 -335.1 -88 -294.1 -72.4 -293.9C-56.8 -293.6 -52.9 -334.2 -42.8 -352.1C-32.6 -370 -16.3 -365.3 0 -360.6L0 0Z" fill="#c6c6f5"></path><path d="M-270.4 0C-272.9 -11.4 -275.5 -22.9 -268.4 -32.6C-261.4 -42.3 -244.9 -50.3 -232.5 -57.3C-220.2 -64.3 -212.2 -70.4 -210.4 -79.8C-208.6 -89.2 -213.1 -101.8 -209.4 -109.9C-205.7 -118 -193.7 -121.4 -189.7 -130.9C-185.7 -140.4 -189.6 -155.9 -185.3 -164.1C-180.9 -172.3 -168.3 -173.2 -162.8 -183.8C-157.3 -194.4 -158.9 -214.7 -148.5 -215.2C-138.2 -215.7 -116 -196.3 -107.1 -204.1C-98.2 -211.9 -102.5 -247 -94.5 -249.2C-86.5 -251.3 -66 -220.6 -54.3 -220.4C-42.6 -220.2 -39.7 -250.6 -32.1 -264.1C-24.5 -277.5 -12.2 -274 0 -270.4L0 0Z" fill="#bdbdf4"></path><path d="M-180.3 0C-182 -7.6 -183.6 -15.3 -179 -21.7C-174.3 -28.2 -163.2 -33.5 -155 -38.2C-146.8 -42.9 -141.4 -46.9 -140.3 -53.2C-139.1 -59.4 -142.1 -67.9 -139.6 -73.3C-137.1 -78.7 -129.1 -81 -126.5 -87.3C-123.8 -93.6 -126.4 -104 -123.5 -109.4C-120.6 -114.9 -112.2 -115.4 -108.5 -122.5C-104.9 -129.6 -105.9 -143.2 -99 -143.5C-92.2 -143.8 -77.4 -130.8 -71.4 -136.1C-65.5 -141.3 -68.4 -164.7 -63 -166.1C-57.6 -167.6 -44 -147.1 -36.2 -146.9C-28.4 -146.8 -26.4 -167.1 -21.4 -176C-16.3 -185 -8.2 -182.6 0 -180.3L0 0Z" fill="#b4b4f3"></path><path d="M-90.1 0C-91 -3.8 -91.8 -7.6 -89.5 -10.9C-87.1 -14.1 -81.6 -16.8 -77.5 -19.1C-73.4 -21.4 -70.7 -23.5 -70.1 -26.6C-69.5 -29.7 -71 -33.9 -69.8 -36.6C-68.6 -39.3 -64.6 -40.5 -63.2 -43.6C-61.9 -46.8 -63.2 -52 -61.8 -54.7C-60.3 -57.4 -56.1 -57.7 -54.3 -61.3C-52.4 -64.8 -53 -71.6 -49.5 -71.7C-46.1 -71.9 -38.7 -65.4 -35.7 -68C-32.7 -70.6 -34.2 -82.3 -31.5 -83.1C-28.8 -83.8 -22 -73.5 -18.1 -73.5C-14.2 -73.4 -13.2 -83.5 -10.7 -88C-8.2 -92.5 -4.1 -91.3 0 -90.1L0 0Z" fill="#afaff2"></path></g><g transform="translate(0, 0)"><path d="M540.8 0C511.9 19.9 482.9 39.7 459.6 55.8C436.4 71.9 418.9 84.2 421.4 103.9C423.9 123.5 446.4 150.4 445.1 168.8C443.7 187.2 418.4 197 409.1 214.7C399.7 232.4 406.3 257.8 398.3 274.9C390.3 292.1 367.8 300.9 346.6 307C325.3 313.1 305.4 316.5 295.8 333.8C286.1 351.2 286.8 382.6 275.5 399.1C264.2 415.7 240.8 417.5 218.4 416.2C196 414.9 174.6 410.5 157.1 414.2C139.6 417.9 126.2 429.8 112.2 455.4C98.3 481 84 520.4 65.2 536.9C46.4 553.4 23.2 547.1 0 540.8L0 0Z" fill="#d9d9f8"></path><path d="M450.7 0C426.5 16.5 402.4 33.1 383 46.5C363.7 59.9 349.1 70.2 351.2 86.6C353.3 102.9 372 125.3 370.9 140.7C369.7 156 348.7 164.2 340.9 178.9C333.1 193.6 338.6 214.8 331.9 229.1C325.3 243.4 306.5 250.8 288.8 255.9C271.1 260.9 254.5 263.7 246.5 278.2C238.4 292.7 239 318.8 229.6 332.6C220.2 346.4 200.7 347.9 182 346.8C163.3 345.7 145.5 342.1 130.9 345.2C116.4 348.3 105.1 358.1 93.5 379.5C81.9 400.8 70 433.6 54.3 447.4C38.7 461.2 19.3 455.9 0 450.7L0 0Z" fill="#d0d0f6"></path><path d="M360.6 0C341.2 13.2 321.9 26.5 306.4 37.2C290.9 47.9 279.2 56.2 280.9 69.2C282.6 82.3 297.6 100.3 296.7 112.5C295.8 124.8 279 131.4 272.7 143.1C266.5 154.9 270.9 171.9 265.5 183.3C260.2 194.7 245.2 200.6 231 204.7C216.9 208.7 203.6 211 197.2 222.6C190.8 234.1 191.2 255.1 183.7 266.1C176.1 277.1 160.6 278.3 145.6 277.4C130.7 276.6 116.4 273.7 104.7 276.1C93.1 278.6 84.1 286.5 74.8 303.6C65.6 320.6 56 346.9 43.5 357.9C30.9 369 15.5 364.8 0 360.6L0 0Z" fill="#c6c6f5"></path><path d="M270.4 0C255.9 9.9 241.4 19.9 229.8 27.9C218.2 36 209.4 42.1 210.7 51.9C212 61.7 223.2 75.2 222.5 84.4C221.8 93.6 209.2 98.5 204.5 107.4C199.9 116.2 203.2 128.9 199.2 137.5C195.2 146 183.9 150.5 173.3 153.5C162.7 156.6 152.7 158.2 147.9 166.9C143.1 175.6 143.4 191.3 137.8 199.6C132.1 207.9 120.4 208.7 109.2 208.1C98 207.4 87.3 205.2 78.5 207.1C69.8 209 63.1 214.9 56.1 227.7C49.2 240.5 42 260.2 32.6 268.4C23.2 276.7 11.6 273.6 0 270.4L0 0Z" fill="#bdbdf4"></path><path d="M180.3 0C170.6 6.6 161 13.2 153.2 18.6C145.5 24 139.6 28.1 140.5 34.6C141.3 41.2 148.8 50.1 148.4 56.3C147.9 62.4 139.5 65.7 136.4 71.6C133.2 77.5 135.4 85.9 132.8 91.6C130.1 97.4 122.6 100.3 115.5 102.3C108.4 104.4 101.8 105.5 98.6 111.3C95.4 117.1 95.6 127.5 91.8 133C88.1 138.6 80.3 139.2 72.8 138.7C65.3 138.3 58.2 136.8 52.4 138.1C46.5 139.3 42.1 143.3 37.4 151.8C32.8 160.3 28 173.5 21.7 179C15.5 184.5 7.7 182.4 0 180.3L0 0Z" fill="#b4b4f3"></path><path d="M90.1 0C85.3 3.3 80.5 6.6 76.6 9.3C72.7 12 69.8 14 70.2 17.3C70.7 20.6 74.4 25.1 74.2 28.1C73.9 31.2 69.7 32.8 68.2 35.8C66.6 38.7 67.7 43 66.4 45.8C65.1 48.7 61.3 50.2 57.8 51.2C54.2 52.2 50.9 52.7 49.3 55.6C47.7 58.5 47.8 63.8 45.9 66.5C44 69.3 40.1 69.6 36.4 69.4C32.7 69.1 29.1 68.4 26.2 69C23.3 69.7 21 71.6 18.7 75.9C16.4 80.2 14 86.7 10.9 89.5C7.7 92.2 3.9 91.2 0 90.1L0 0Z" fill="#afaff2"></path></g></svg>